<svg width="32" height="32" viewBox="0 0 32 32" fill="none" xmlns="http://www.w3.org/2000/svg">
<path d="M29.8637 7.96983C28.4335 5.5156 26.4911 3.57344 24.0402 2.14699C21.5821 0.713224 18.9044 0 16.0037 0C13.1029 0 10.4252 0.713224 7.97074 2.14333C5.51623 3.57344 3.57385 5.5156 2.14723 7.96617C0.713306 10.424 0 13.1014 0 16.0018C0 18.9023 0.713306 21.5796 2.14358 24.0338C3.57385 26.4881 5.51623 28.4302 7.96708 29.8567C10.4216 31.2868 13.0992 32 16 32C18.9008 32 21.5784 31.2868 24.0329 29.8567C26.4874 28.4266 28.4298 26.4844 29.8564 24.0338C31.2867 21.5796 32 18.9023 32 16.0018C32 13.1014 31.294 10.424 29.8637 7.96983ZM16.0037 2.65539C19.2044 2.65539 22.043 3.67951 24.5194 5.72774C23.0489 7.60407 20.8615 9.15122 17.957 10.3692C16.3548 7.46874 14.6173 5.04743 12.7407 3.10527C13.8272 2.80535 14.9136 2.65539 16.0037 2.65539ZM5.61866 7.68088C6.82579 6.16665 8.27069 4.9816 9.95702 4.12939C11.8994 6.04961 13.6808 8.44897 15.3013 11.3311C12.1006 12.2894 8.71696 12.7722 5.15409 12.7722C4.23594 12.7722 3.54458 12.7503 3.0727 12.7064C3.56287 10.8703 4.41152 9.19511 5.61866 7.68088ZM2.65569 16.0018C2.65569 15.9177 2.65935 15.8116 2.67032 15.68C2.6813 15.5519 2.68496 15.4459 2.68496 15.3581C3.09099 15.38 3.70919 15.391 4.54321 15.391C8.81207 15.391 12.781 14.8058 16.4499 13.6317C16.7499 14.2279 17.0572 14.9009 17.3791 15.647C15.2647 16.1152 13.0992 17.2564 10.8825 19.0705C8.66209 20.8847 7.04161 22.7939 6.01738 24.7983C3.77869 22.2599 2.65569 19.3302 2.65569 16.0018ZM16.0037 29.3483C12.9749 29.3483 10.2533 28.4083 7.84271 26.5319C8.8011 24.6337 10.2789 22.8195 12.2762 21.0895C14.2698 19.3631 16.2487 18.2841 18.2131 17.8562C19.4495 21.2687 20.2835 24.8019 20.7078 28.4485C19.1495 29.0483 17.5839 29.3483 16.0037 29.3483ZM27.3361 23.0097C26.2679 24.7178 24.8925 26.115 23.2062 27.2013C22.8221 23.8729 22.0869 20.6286 20.9968 17.4722C22.4893 17.3661 23.8244 17.3112 24.9986 17.3112C26.2789 17.3112 27.6982 17.3661 29.2565 17.4722C29.0407 19.4582 28.4005 21.3053 27.3361 23.0097ZM25.3498 15.0106C23.4915 15.0106 21.7759 15.0838 20.1957 15.2337C19.7897 14.1877 19.4275 13.3245 19.1056 12.6405C22.4124 11.1885 24.7609 9.42919 26.1472 7.35901C28.0677 9.61938 29.1139 12.2016 29.2858 15.1057C27.9835 15.0435 26.674 15.0106 25.3498 15.0106Z" fill="white"/>
</svg>
