<svg width="32" height="32" viewBox="0 0 32 32" fill="none" xmlns="http://www.w3.org/2000/svg">
<path d="M29.6343 0H2.36663C1.06029 0 0.000488281 1.02754 0.000488281 2.29642V29.7072C0.000488281 30.9761 1.06029 32 2.36663 32H29.6343C30.9407 32 32.0005 30.9761 32.0005 29.7072V2.29277C31.9968 1.02754 30.937 0 29.6343 0ZM9.70058 26.7819H4.86893V12.3378H9.70058V26.7819ZM7.2866 10.3668H7.25348C5.63066 10.3668 4.58558 9.25883 4.58558 7.86927C4.58558 6.45046 5.66746 5.37173 7.31604 5.37173C8.97197 5.37173 9.98761 6.45046 10.017 7.86927C10.017 9.25883 8.97197 10.3668 7.2866 10.3668ZM27.1284 26.7819H22.293V19.0552C22.293 17.1135 21.5975 15.7897 19.8496 15.7897C18.5101 15.7897 17.7153 16.682 17.3657 17.545C17.2406 17.8558 17.2112 18.2873 17.2112 18.7151V26.7892H12.3758C12.3758 26.7892 12.4384 13.6981 12.3758 12.3414H17.2112V14.3856C17.8515 13.4019 19.0032 12.0014 21.5644 12.0014C24.7438 12.0014 27.1284 14.0674 27.1284 18.5067V26.7819Z" fill="white"/>
</svg>
