<svg width="64" height="64" viewBox="0 0 64 64" fill="none" xmlns="http://www.w3.org/2000/svg">
<g filter="url(#filter0_dd)">
<path d="M11.9106 48.0908C8.5632 44.8058 8 35.5607 8 30C8 24.4393 8.5632 15.1942 11.9106 11.9092C15.1051 8.7743 24.5001 8 30 8C35.4999 8 44.8949 8.7743 48.0894 11.9092C51.4368 15.1942 52 24.4393 52 30C52 35.5607 51.4368 44.8058 48.0894 48.0908C44.8949 51.2257 35.4999 52 30 52C24.5001 52 15.1051 51.2257 11.9106 48.0908Z" fill="url(#paint0_linear)"/>
<path d="M12.4709 47.5198C11.7519 46.8142 11.1406 45.7425 10.6377 44.3827C10.1378 43.0311 9.76414 41.4476 9.48952 39.7696C8.94024 36.4133 8.8 32.7603 8.8 30C8.8 27.2397 8.94024 23.5867 9.48952 20.2304C9.76414 18.5524 10.1378 16.9689 10.6377 15.6173C11.1406 14.2575 11.7519 13.1858 12.4709 12.4802C13.1525 11.8113 14.217 11.2236 15.5841 10.7279C16.9403 10.2361 18.536 9.85549 20.2252 9.56765C23.6035 8.99196 27.2799 8.8 30 8.8C32.7201 8.8 36.3965 8.99196 39.7748 9.56765C41.464 9.85549 43.0597 10.2361 44.4159 10.7279C45.783 11.2236 46.8475 11.8113 47.5291 12.4802C48.2481 13.1858 48.8594 14.2575 49.3623 15.6173C49.8622 16.9689 50.2359 18.5524 50.5105 20.2304C51.0598 23.5867 51.2 27.2397 51.2 30C51.2 32.7603 51.0598 36.4133 50.5105 39.7696C50.2359 41.4476 49.8622 43.0311 49.3623 44.3827C48.8594 45.7425 48.2481 46.8142 47.5291 47.5198C46.8475 48.1887 45.783 48.7764 44.4159 49.2721C43.0597 49.7639 41.464 50.1445 39.7748 50.4324C36.3965 51.008 32.7201 51.2 30 51.2C27.2799 51.2 23.6035 51.008 20.2252 50.4324C18.536 50.1445 16.9403 49.7639 15.5841 49.2721C14.217 48.7764 13.1525 48.1887 12.4709 47.5198Z" stroke="url(#paint1_linear)" stroke-width="1.6" stroke-linejoin="round"/>
</g>
<mask id="mask0" mask-type="alpha" maskUnits="userSpaceOnUse" x="8" y="8" width="44" height="44">
<path d="M12.4709 47.5198C11.7519 46.8142 11.1406 45.7425 10.6377 44.3827C10.1378 43.0311 9.76414 41.4476 9.48952 39.7696C8.94024 36.4133 8.8 32.7603 8.8 30C8.8 27.2397 8.94024 23.5867 9.48952 20.2304C9.76414 18.5524 10.1378 16.9689 10.6377 15.6173C11.1406 14.2575 11.7519 13.1858 12.4709 12.4802C13.1525 11.8113 14.217 11.2236 15.5841 10.7279C16.9403 10.2361 18.536 9.85549 20.2252 9.56765C23.6035 8.99196 27.2799 8.8 30 8.8C32.7201 8.8 36.3965 8.99196 39.7748 9.56765C41.464 9.85549 43.0597 10.2361 44.4159 10.7279C45.783 11.2236 46.8475 11.8113 47.5291 12.4802C48.2481 13.1858 48.8594 14.2575 49.3623 15.6173C49.8622 16.9689 50.2359 18.5524 50.5105 20.2304C51.0598 23.5867 51.2 27.2397 51.2 30C51.2 32.7603 51.0598 36.4133 50.5105 39.7696C50.2359 41.4476 49.8622 43.0311 49.3623 44.3827C48.8594 45.7425 48.2481 46.8142 47.5291 47.5198C46.8475 48.1887 45.783 48.7764 44.4159 49.2721C43.0597 49.7639 41.464 50.1445 39.7748 50.4324C36.3965 51.008 32.7201 51.2 30 51.2C27.2799 51.2 23.6035 51.008 20.2252 50.4324C18.536 50.1445 16.9403 49.7639 15.5841 49.2721C14.217 48.7764 13.1525 48.1887 12.4709 47.5198Z" fill="white" stroke="white" stroke-width="1.6" stroke-linejoin="round"/>
</mask>
<g mask="url(#mask0)">
<path fill-rule="evenodd" clip-rule="evenodd" d="M30.9738 42.0454C30.8059 42.0512 30.6379 42.0538 30.4699 42.0533L30.315 42.0513L30.2894 41.9545C30.2689 41.8781 30.2473 41.802 30.2245 41.7262C30.173 41.5552 30.1155 41.3858 30.0525 41.2184C30.8355 41.2474 31.6215 41.2017 32.3949 41.0803C33.1459 40.9625 33.8849 40.7735 34.5975 40.5166C35.2912 40.2665 35.9599 39.9518 36.5916 39.5793C37.2137 39.2125 37.7998 38.789 38.3402 38.3172C38.4745 38.2 38.6059 38.0798 38.7344 37.9568C38.8374 37.858 38.9139 37.7415 38.9483 37.6044C39.0153 37.3375 38.9127 37.0511 38.6891 36.8807C38.4662 36.7109 38.1525 36.6811 37.8991 36.8047C37.787 36.8594 37.6982 36.9452 37.61 37.0304L37.61 37.0304C37.5845 37.055 37.5591 37.0796 37.5332 37.1033C37.4021 37.2236 37.2676 37.3405 37.13 37.4539C36.5738 37.9122 35.9669 38.313 35.322 38.6465C34.6629 38.9873 33.9651 39.2577 33.2443 39.4507C32.5006 39.6498 31.7339 39.7664 30.9628 39.7991C30.5719 39.8157 30.18 39.811 29.7896 39.7848C29.6937 39.7783 29.5979 39.7704 29.5023 39.761C29.4544 39.7564 29.4067 39.7514 29.359 39.7461L29.3119 39.7409L29.2576 39.6581C29.1577 39.5059 29.0525 39.3569 28.9423 39.2114C28.8341 39.0687 28.721 38.9292 28.6033 38.7936C29.5302 38.9786 30.4855 39.027 31.4274 38.938C32.3533 38.8507 33.2644 38.6294 34.122 38.2821C34.2249 38.2404 34.3271 38.197 34.4285 38.1517C34.5115 38.1147 34.5868 38.0736 34.6464 38.005C34.7497 37.8864 34.7866 37.722 34.7428 37.573C34.6981 37.4209 34.5746 37.2981 34.418 37.2504C34.3399 37.2267 34.2559 37.222 34.1755 37.2372C34.1041 37.2507 34.0374 37.2816 33.9714 37.3122L33.9714 37.3123C33.9489 37.3227 33.9266 37.333 33.9041 37.3427C33.0605 37.705 32.1548 37.9294 31.2346 38.0061C30.291 38.0848 29.3325 38.0096 28.4153 37.7817C27.5197 37.5591 26.6657 37.1909 25.8948 36.6991C25.1397 36.2173 24.4685 35.6196 23.9119 34.9313C23.3544 34.2417 22.914 33.4652 22.6161 32.6397C22.3077 31.785 22.1531 30.8812 22.1559 29.9766C22.1587 29.0785 22.3157 28.182 22.6253 27.3345C22.9289 26.5032 23.3763 25.722 23.943 25.0301C24.5031 24.3462 25.1779 23.7503 25.9345 23.2729C26.7055 22.7863 27.5596 22.4244 28.4535 22.2072C29.3715 21.9842 30.3284 21.9148 31.271 21.9971C32.1953 22.0777 33.1042 22.308 33.9493 22.6774C34.7718 23.037 35.532 23.5261 36.1928 24.119C36.2737 24.1916 36.3512 24.2677 36.4286 24.3438C36.5082 24.422 36.5878 24.5002 36.6712 24.5746C36.8162 24.7041 36.9767 24.8175 37.1486 24.9116C37.4815 25.0938 37.8563 25.2023 38.2382 25.2285C39.0315 25.2828 39.8191 24.9741 40.3483 24.4027C40.802 23.9129 41.0364 23.2571 40.9954 22.6023C40.9753 22.2812 40.89 21.9644 40.7448 21.6746C40.5776 21.3412 40.3305 21.0762 40.0611 20.8165C39.4195 20.1977 38.7135 19.6413 37.9565 19.1581C37.1974 18.6735 36.3869 18.2634 35.5419 17.9359C34.6861 17.6042 33.7945 17.3581 32.8863 17.2022C31.953 17.0419 31.0018 16.977 30.0542 17.0072C29.1086 17.0372 28.1663 17.162 27.2479 17.3811C26.3467 17.5961 25.4693 17.9013 24.6333 18.2901C23.8111 18.6725 23.0295 19.1359 22.3043 19.6701C21.5863 20.1989 20.9235 20.797 20.329 21.4526C19.7289 22.1144 19.1985 22.8342 18.7486 23.5984C18.2953 24.3683 17.9244 25.1829 17.6434 26.0255C17.3565 26.8861 17.164 27.776 17.0695 28.6753C16.9734 29.5884 16.9769 30.5112 17.0804 31.4235C17.1822 32.3203 17.381 33.2062 17.6736 34.0632C17.9602 34.9025 18.3367 35.713 18.7945 36.4787C19.2438 37.2302 19.7717 37.9382 20.3671 38.5888C20.9659 39.2434 21.6329 39.8407 22.3556 40.3667C22.9929 40.8305 23.6619 41.2494 24.3721 41.6025C25.072 41.9503 25.8048 42.236 26.559 42.4546C27.3336 42.6791 28.1297 42.8328 28.9337 42.9178C29.8212 43.0116 30.7197 43.0259 31.6097 42.9567C31.7221 42.948 31.8344 42.9379 31.9466 42.9265L31.9882 42.9225C32.0691 42.9149 32.1508 42.9073 32.2262 42.8764C32.3675 42.8184 32.4748 42.6964 32.5109 42.5526C32.59 42.2379 32.31 41.9348 31.9765 41.972C31.6435 42.0094 31.3089 42.0337 30.9738 42.0454ZM39.0567 35.4526C39.3046 35.2797 39.6473 35.2743 39.9009 35.439C40.1886 35.6259 40.3031 35.9932 40.1683 36.3014C40.0495 36.573 39.7605 36.7488 39.4547 36.7353C39.1453 36.7217 38.8711 36.5147 38.783 36.229C38.6951 35.9437 38.8062 35.6273 39.0567 35.4526ZM37.9975 39.6602C37.2395 40.2058 36.4184 40.6699 35.552 41.0372C35.118 41.2212 34.6729 41.3811 34.2199 41.5159C33.992 41.5837 33.7621 41.6452 33.5305 41.7004L33.4981 41.7079L33.473 41.7134C33.3911 41.7314 33.309 41.7495 33.2367 41.7921C33.1603 41.8371 33.0975 41.9024 33.0565 41.9791C32.9687 42.1431 32.99 42.3475 33.1102 42.4915C33.247 42.6551 33.4521 42.6909 33.6555 42.6442C34.1145 42.5386 34.5679 42.4102 35.013 42.259C35.9069 41.9552 36.7663 41.5593 37.5732 41.0805C37.7745 40.961 37.9725 40.8365 38.1671 40.7071C38.266 40.6414 38.3639 40.5743 38.461 40.5061L38.4961 40.4817C38.5707 40.4302 38.6458 40.3784 38.6979 40.3044C38.8031 40.1554 38.8102 39.9556 38.7155 39.8002C38.6207 39.6446 38.438 39.5531 38.2513 39.5677C38.1597 39.5749 38.0712 39.6072 37.9975 39.6602ZM39.2322 38.6456C39.3664 38.5201 39.4977 38.3917 39.6259 38.2606C39.8445 38.0368 40.237 38.0762 40.403 38.3389C40.4714 38.4472 40.4918 38.5803 40.4589 38.7031C40.4235 38.8351 40.3246 38.9305 40.2273 39.0243C40.2125 39.0386 40.1976 39.0529 40.1831 39.0673C40.0543 39.1946 39.9228 39.3195 39.7888 39.4417C39.6679 39.5519 39.5184 39.6149 39.3495 39.5898C39.0596 39.5469 38.871 39.259 38.9534 38.989C38.9917 38.8634 39.0856 38.7786 39.1808 38.6926L39.181 38.6925C39.1981 38.677 39.2153 38.6614 39.2322 38.6456ZM36.5571 35.5366C36.2509 35.8466 35.9271 36.1333 35.5711 36.3895C35.4733 36.4599 35.3742 36.5284 35.2751 36.5967C35.1926 36.6536 35.1269 36.7252 35.089 36.8168C35.0122 37.0031 35.0682 37.2213 35.2266 37.3516C35.413 37.5049 35.6653 37.49 35.8576 37.358C36.0441 37.2299 36.229 37.0996 36.4078 36.9615C36.5759 36.8317 36.7379 36.6947 36.8938 36.5514C36.9844 36.4682 37.0731 36.383 37.1604 36.2966L37.1876 36.2699C37.2606 36.1986 37.3333 36.1275 37.3714 36.0322C37.4546 35.8236 37.3706 35.5809 37.1742 35.4619C36.9788 35.3435 36.7161 35.3756 36.5571 35.5366ZM28.6688 27.4952C29.2066 27.1265 29.8582 26.9271 30.5183 26.9271C30.6822 26.9271 30.8461 26.9391 31.0081 26.9631C31.6508 27.0583 32.2549 27.3468 32.7246 27.7795C33.1927 28.2107 33.5186 28.7768 33.6468 29.3884C33.7788 30.0178 33.7021 30.6828 33.4265 31.2677C33.162 31.8289 32.7206 32.3073 32.1737 32.6274C31.6051 32.9601 30.9339 33.1123 30.2708 33.0633C29.6181 33.0151 28.9892 32.77 28.4849 32.3683C27.9896 31.9738 27.6234 31.4367 27.4477 30.8412C27.2651 30.2226 27.2898 29.5515 27.5187 28.9474C27.739 28.3654 28.1448 27.8545 28.6688 27.4952Z" fill="white"/>
</g>
<defs>
<filter id="filter0_dd" x="2" y="2" width="56" height="56" filterUnits="userSpaceOnUse" color-interpolation-filters="sRGB">
<feFlood flood-opacity="0" result="BackgroundImageFix"/>
<feColorMatrix in="SourceAlpha" type="matrix" values="0 0 0 0 0 0 0 0 0 0 0 0 0 0 0 0 0 0 127 0"/>
<feOffset dx="2" dy="2"/>
<feGaussianBlur stdDeviation="2"/>
<feColorMatrix type="matrix" values="0 0 0 0 0.298039 0 0 0 0 0.137255 0 0 0 0 0.0784314 0 0 0 0.2 0"/>
<feBlend mode="normal" in2="BackgroundImageFix" result="effect1_dropShadow"/>
<feColorMatrix in="SourceAlpha" type="matrix" values="0 0 0 0 0 0 0 0 0 0 0 0 0 0 0 0 0 0 127 0"/>
<feOffset dx="-2" dy="-2"/>
<feGaussianBlur stdDeviation="2"/>
<feColorMatrix type="matrix" values="0 0 0 0 1 0 0 0 0 1 0 0 0 0 1 0 0 0 1 0"/>
<feBlend mode="normal" in2="effect1_dropShadow" result="effect2_dropShadow"/>
<feBlend mode="normal" in="SourceGraphic" in2="effect2_dropShadow" result="shape"/>
</filter>
<linearGradient id="paint0_linear" x1="-14" y1="30" x2="30" y2="74" gradientUnits="userSpaceOnUse">
<stop stop-color="#F54B00"/>
<stop offset="1" stop-color="#FFA279"/>
</linearGradient>
<linearGradient id="paint1_linear" x1="-14" y1="30" x2="30" y2="74" gradientUnits="userSpaceOnUse">
<stop offset="0.0108478" stop-color="#FFEDE5" stop-opacity="0.6"/>
<stop offset="1" stop-color="#DA5013"/>
</linearGradient>
</defs>
</svg>
