<svg width="64" height="64" viewBox="0 0 64 64" fill="none" xmlns="http://www.w3.org/2000/svg">
<path d="M37.5002 35H27.5002L25.5684 26.5H40.0002L37.5002 35Z" fill="#DAC0FF"/>
<path d="M20.5 21L25 24L27.5 35H37.5L40 26.5H30.5M30.5 31H38.5M29 38.75C29 39.1642 28.6642 39.5 28.25 39.5C27.8358 39.5 27.5 39.1642 27.5 38.75C27.5 38.3358 27.8358 38 28.25 38C28.6642 38 29 38.3358 29 38.75ZM37.5 38.75C37.5 39.1642 37.1642 39.5 36.75 39.5C36.3358 39.5 36 39.1642 36 38.75C36 38.3358 36.3358 38 36.75 38C37.1642 38 37.5 38.3358 37.5 38.75Z" stroke="#1D0046" stroke-width="2" stroke-linecap="round" stroke-linejoin="round"/>
</svg>
