<svg width="64" height="64" viewBox="0 0 64 64" fill="none" xmlns="http://www.w3.org/2000/svg">
<path fill-rule="evenodd" clip-rule="evenodd" d="M22.7939 36.9333C23.9749 38.1604 25.4664 39.0866 27.1419 39.5854C27.5286 38.3757 28.662 37.4998 30 37.4998C31.338 37.4998 32.4714 38.3757 32.8581 39.5854C34.5336 39.0866 36.0251 38.1604 37.2061 36.9333C36.7655 36.4111 36.5 35.7365 36.5 34.9998C36.5 33.343 37.8431 31.9998 39.5 31.9998C39.6002 31.9998 39.6993 32.0047 39.797 32.0143C39.9301 31.3636 40 30.6899 40 29.9998C40 28.9545 39.8396 27.9467 39.5421 26.9995C39.5281 26.9997 39.5141 26.9998 39.5 26.9998C37.8431 26.9998 36.5 25.6567 36.5 23.9998C36.5 23.5242 36.6107 23.0744 36.8077 22.6748C35.6512 21.5995 34.2397 20.7948 32.674 20.3613C32.1778 21.3339 31.1667 21.9998 30 21.9998C28.8333 21.9998 27.8222 21.3339 27.326 20.3613C25.7603 20.7948 24.3488 21.5995 23.1923 22.6748C23.3893 23.0744 23.5 23.5242 23.5 23.9998C23.5 25.6567 22.1569 26.9998 20.5 26.9998C20.4859 26.9998 20.4719 26.9997 20.4579 26.9995C20.1604 27.9467 20 28.9545 20 29.9998C20 30.6899 20.0699 31.3636 20.203 32.0143C20.3007 32.0047 20.3998 31.9998 20.5 31.9998C22.1569 31.9998 23.5 33.343 23.5 34.9998C23.5 35.7365 23.2345 36.4111 22.7939 36.9333ZM33.5 29.9998C33.5 31.9328 31.933 33.4998 30 33.4998C28.067 33.4998 26.5 31.9328 26.5 29.9998C26.5 28.0668 28.067 26.4998 30 26.4998C31.933 26.4998 33.5 28.0668 33.5 29.9998Z" fill="#DAC0FF"/>
<path d="M27.1419 39.5854C25.4664 39.0866 23.9749 38.1604 22.7939 36.9333C23.2345 36.4111 23.5 35.7365 23.5 34.9998C23.5 33.343 22.1569 31.9998 20.5 31.9998C20.3998 31.9998 20.3007 32.0047 20.203 32.0143C20.0699 31.3636 20 30.6899 20 29.9998C20 28.9545 20.1604 27.9467 20.4579 26.9995C20.4719 26.9997 20.4859 26.9998 20.5 26.9998C22.1569 26.9998 23.5 25.6567 23.5 23.9998C23.5 23.5242 23.3893 23.0744 23.1923 22.6748C24.3488 21.5995 25.7603 20.7948 27.326 20.3613C27.8222 21.3339 28.8333 21.9998 30 21.9998C31.1667 21.9998 32.1778 21.3339 32.674 20.3613C34.2397 20.7948 35.6512 21.5995 36.8077 22.6748C36.6107 23.0744 36.5 23.5242 36.5 23.9998C36.5 25.6567 37.8431 26.9998 39.5 26.9998C39.5141 26.9998 39.5281 26.9997 39.5421 26.9995C39.8396 27.9467 40 28.9545 40 29.9998C40 30.6899 39.9301 31.3636 39.797 32.0143C39.6993 32.0047 39.6002 31.9998 39.5 31.9998C37.8431 31.9998 36.5 33.343 36.5 34.9998C36.5 35.7365 36.7655 36.4111 37.2061 36.9333C36.0251 38.1604 34.5336 39.0866 32.8581 39.5854C32.4714 38.3757 31.338 37.4998 30 37.4998C28.662 37.4998 27.5286 38.3757 27.1419 39.5854Z" stroke="#1D0046" stroke-width="2" stroke-linejoin="round"/>
<path d="M30 33.4998C31.933 33.4998 33.5 31.9328 33.5 29.9998C33.5 28.0668 31.933 26.4998 30 26.4998C28.067 26.4998 26.5 28.0668 26.5 29.9998C26.5 31.9328 28.067 33.4998 30 33.4998Z" stroke="#1D0046" stroke-width="2" stroke-linejoin="round"/>
</svg>
