<svg width="64" height="64" viewBox="0 0 64 64" fill="none" xmlns="http://www.w3.org/2000/svg">
<path d="M27.5 28C29.433 28 31 26.433 31 24.5C31 22.567 29.433 21 27.5 21C25.567 21 24 22.567 24 24.5C24 26.433 25.567 28 27.5 28Z" fill="#DAC0FF"/>
<path d="M20 38.4V39H35V38.4C35 36.1598 35 35.0397 34.564 34.184C34.1805 33.4314 33.5686 32.8195 32.816 32.436C31.9603 32 30.8402 32 28.6 32H26.4C24.1598 32 23.0397 32 22.184 32.436C21.4314 32.8195 20.8195 33.4314 20.436 34.184C20 35.0397 20 36.1598 20 38.4Z" fill="#DAC0FF"/>
<path d="M34.3038 21.5C35.3202 22.1124 36 23.2268 36 24.5C36 25.7732 35.3202 26.8876 34.3038 27.5M40 39V38.4C40 36.1598 40 35.0397 39.564 34.184C39.1805 33.4314 38.5686 32.8195 37.816 32.436M27.5 28C29.433 28 31 26.433 31 24.5C31 22.567 29.433 21 27.5 21C25.567 21 24 22.567 24 24.5C24 26.433 25.567 28 27.5 28ZM20 39V38.4C20 36.1598 20 35.0397 20.436 34.184C20.8195 33.4314 21.4314 32.8195 22.184 32.436C23.0397 32 24.1598 32 26.4 32H28.6C30.8402 32 31.9603 32 32.816 32.436C33.5686 32.8195 34.1805 33.4314 34.564 34.184C35 35.0397 35 36.1598 35 38.4V39H20Z" stroke="#1D0046" stroke-width="2" stroke-linecap="round" stroke-linejoin="round"/>
</svg>
