<svg width="64" height="64" viewBox="0 0 64 64" fill="none" xmlns="http://www.w3.org/2000/svg">
<path d="M36 34C38.2091 34 40 32.2091 40 30C40 27.7909 38.2091 26 36 26" fill="#DAC0FF"/>
<path d="M24 26C21.7909 26 20 27.7909 20 30C20 32.2091 21.7909 34 24 34" fill="#DAC0FF"/>
<path d="M24 34V35C24.5523 35 25 34.5523 25 34H24ZM30 39C29.4477 39 29 39.4477 29 40C29 40.5523 29.4477 41 30 41V39ZM36 35C38.7614 35 41 32.7614 41 30H39C39 31.6569 37.6569 33 36 33V35ZM41 30C41 27.2386 38.7614 25 36 25V27C37.6569 27 39 28.3431 39 30H41ZM24 25C21.2386 25 19 27.2386 19 30H21C21 28.3431 22.3431 27 24 27V25ZM19 30C19 32.7614 21.2386 35 24 35V33C22.3431 33 21 31.6569 21 30H19ZM25 26C25 23.2386 27.2386 21 30 21V19C26.134 19 23 22.134 23 26H25ZM30 21C32.7614 21 35 23.2386 35 26H37C37 22.134 33.866 19 30 19V21ZM35 26V34H37V26H35ZM35 34C35 36.7614 32.7614 39 30 39V41C33.866 41 37 37.866 37 34H35ZM25 34V26H23V34H25Z" fill="#1D0046"/>
</svg>
