<svg width="64" height="64" viewBox="0 0 64 64" fill="none" xmlns="http://www.w3.org/2000/svg">
<path d="M33.1486 27.3893C33.1486 27.3893 31.534 31.9404 30.7667 32.735C29.9994 33.5295 28.7332 33.5516 27.9387 32.7843C27.1441 32.017 27.122 30.7509 27.8893 29.9563C28.6566 29.1618 33.1486 27.3893 33.1486 27.3893Z" fill="#DAC0FF"/>
<path d="M33.1486 27.3893L34.0911 27.7236C34.2221 27.3542 34.1253 26.9423 33.8433 26.6699C33.5613 26.3976 33.1462 26.3152 32.7816 26.4591L33.1486 27.3893ZM36.7175 36.7175C36.327 37.108 36.327 37.7412 36.7175 38.1317C37.108 38.5223 37.7412 38.5223 38.1317 38.1317L36.7175 36.7175ZM21.8683 38.1317C22.2588 38.5223 22.892 38.5223 23.2825 38.1317C23.673 37.7412 23.673 37.108 23.2825 36.7175L21.8683 38.1317ZM31 20C31 19.4477 30.5523 19 30 19C29.4477 19 29 19.4477 29 20H31ZM29 22C29 22.5523 29.4477 23 30 23C30.5523 23 31 22.5523 31 22H29ZM38.052 24.3482C38.4812 24.0006 38.5474 23.3709 38.1999 22.9417C37.8523 22.5125 37.2226 22.4463 36.7934 22.7939L38.052 24.3482ZM35.2391 24.0525C34.8099 24.4001 34.7437 25.0298 35.0913 25.459C35.4388 25.8882 36.0685 25.9544 36.4977 25.6068L35.2391 24.0525ZM39.0363 32.5907C39.5744 32.715 40.1114 32.3795 40.2356 31.8413C40.3599 31.3032 40.0243 30.7662 39.4862 30.642L39.0363 32.5907ZM37.5375 30.1921C36.9993 30.0679 36.4624 30.4034 36.3381 30.9415C36.2139 31.4797 36.5494 32.0166 37.0876 32.1408L37.5375 30.1921ZM20.5138 30.642C19.9757 30.7662 19.6401 31.3032 19.7644 31.8413C19.8886 32.3795 20.4256 32.715 20.9637 32.5908L20.5138 30.642ZM22.9124 32.1408C23.4506 32.0166 23.7861 31.4797 23.6619 30.9415C23.5376 30.4034 23.0007 30.0679 22.4625 30.1921L22.9124 32.1408ZM23.2066 22.7939C22.7774 22.4463 22.1477 22.5125 21.8001 22.9417C21.4526 23.3709 21.5188 24.0006 21.948 24.3482L23.2066 22.7939ZM23.5023 25.6068C23.9315 25.9544 24.5612 25.8882 24.9087 25.459C25.2563 25.0298 25.1901 24.4001 24.7609 24.0525L23.5023 25.6068ZM33.1486 27.3893C32.2062 27.0549 32.2062 27.0549 32.2062 27.0549C32.2062 27.0549 32.2062 27.0549 32.2062 27.055C32.2061 27.055 32.2061 27.0552 32.206 27.0554C32.2058 27.0558 32.2056 27.0565 32.2053 27.0575C32.2046 27.0595 32.2035 27.0625 32.202 27.0666C32.1991 27.0747 32.1947 27.087 32.1889 27.1033C32.1773 27.1358 32.1599 27.1839 32.1375 27.2458C32.0927 27.3694 32.0277 27.5476 31.9471 27.7641C31.7858 28.1977 31.5634 28.7823 31.3181 29.3897C31.0719 29.9996 30.8073 30.6204 30.5616 31.1306C30.4386 31.3861 30.3256 31.6027 30.2267 31.7712C30.1775 31.8551 30.1355 31.9208 30.1011 31.9699C30.0649 32.0215 30.0469 32.0408 30.0473 32.0403L31.486 33.4296C31.6666 33.2426 31.8239 33.0014 31.9519 32.783C32.0882 32.5506 32.2273 32.2813 32.3635 31.9984C32.6364 31.4318 32.9193 30.7658 33.1726 30.1386C33.4269 29.5089 33.6562 28.9061 33.8216 28.4615C33.9044 28.2389 33.9714 28.0553 34.0179 27.927C34.0412 27.8629 34.0593 27.8125 34.0717 27.7779C34.0779 27.7606 34.0826 27.7473 34.0859 27.7382C34.0875 27.7336 34.0888 27.7301 34.0896 27.7277C34.0901 27.7264 34.0904 27.7255 34.0906 27.7248C34.0908 27.7245 34.0909 27.7242 34.0909 27.724C34.091 27.7239 34.091 27.7238 34.091 27.7238C34.091 27.7237 34.0911 27.7236 33.1486 27.3893ZM30.0473 32.0403C29.6637 32.4376 29.0306 32.4486 28.6333 32.065L27.244 33.5037C28.4359 34.6546 30.3351 34.6215 31.486 33.4296L30.0473 32.0403ZM28.6333 32.065C28.2361 31.6813 28.225 31.0483 28.6087 30.651L27.17 29.2617C26.019 30.4535 26.0522 32.3527 27.244 33.5037L28.6333 32.065ZM28.6087 30.651C28.6082 30.6515 28.6269 30.6328 28.6772 30.5948C28.725 30.5587 28.7892 30.5144 28.8713 30.4623C29.0363 30.3576 29.2488 30.2372 29.4998 30.1053C30.0012 29.8419 30.6124 29.5559 31.2133 29.2885C31.8117 29.0221 32.3882 28.7795 32.816 28.6031C33.0295 28.5151 33.2053 28.4438 33.3273 28.3947C33.3883 28.3702 33.4359 28.3512 33.4679 28.3384C33.484 28.332 33.4961 28.3272 33.5042 28.324C33.5082 28.3224 33.5112 28.3213 33.5131 28.3205C33.5141 28.3201 33.5148 28.3198 33.5152 28.3197C33.5154 28.3196 33.5156 28.3195 33.5156 28.3195C33.5157 28.3195 33.5157 28.3195 33.5157 28.3195C33.5157 28.3195 33.5157 28.3195 33.1486 27.3893C32.7816 26.4591 32.7815 26.4591 32.7814 26.4591C32.7814 26.4592 32.7813 26.4592 32.7812 26.4592C32.781 26.4593 32.7807 26.4594 32.7804 26.4595C32.7797 26.4598 32.7788 26.4602 32.7776 26.4606C32.7752 26.4616 32.7717 26.463 32.7672 26.4648C32.7582 26.4683 32.7451 26.4735 32.728 26.4803C32.6939 26.4939 32.6442 26.5138 32.5809 26.5393C32.4542 26.5902 32.2731 26.6636 32.0536 26.7542C31.615 26.935 31.0206 27.1851 30.4001 27.4612C29.7821 27.7363 29.1264 28.0423 28.5697 28.3347C28.2917 28.4808 28.0274 28.6292 27.7999 28.7735C27.5862 28.9091 27.3505 29.0747 27.17 29.2617L28.6087 30.651ZM38.1317 38.1317C40.2117 36.0517 41.5 33.1754 41.5 30H39.5C39.5 32.6236 38.4378 34.9973 36.7175 36.7175L38.1317 38.1317ZM41.5 30C41.5 23.6487 36.3513 18.5 30 18.5V20.5C35.2467 20.5 39.5 24.7533 39.5 30H41.5ZM30 18.5C23.6487 18.5 18.5 23.6487 18.5 30H20.5C20.5 24.7533 24.7533 20.5 30 20.5V18.5ZM18.5 30C18.5 33.1754 19.7883 36.0517 21.8683 38.1317L23.2825 36.7175C21.5622 34.9973 20.5 32.6236 20.5 30H18.5ZM29 20V22H31V20H29ZM36.7934 22.7939L35.2391 24.0525L36.4977 25.6068L38.052 24.3482L36.7934 22.7939ZM39.4862 30.642L37.5375 30.1921L37.0876 32.1408L39.0363 32.5907L39.4862 30.642ZM20.9637 32.5908L22.9124 32.1408L22.4625 30.1921L20.5138 30.642L20.9637 32.5908ZM21.948 24.3482L23.5023 25.6068L24.7609 24.0525L23.2066 22.7939L21.948 24.3482Z" fill="#1D0046"/>
</svg>
