<svg width="40" height="32" viewBox="0 0 40 32" fill="none" xmlns="http://www.w3.org/2000/svg">
<path d="M39.3761 3.78798C37.9274 4.4306 36.3703 4.86472 34.7364 5.06003C36.4042 4.06027 37.6853 2.47715 38.2883 0.590646C36.7272 1.51657 34.9984 2.18872 33.1582 2.55098C31.6847 0.980859 29.5852 0 27.2616 0C22.8003 0 19.183 3.61689 19.183 8.07821C19.183 8.71138 19.2545 9.32801 19.3923 9.91924C12.6783 9.58238 6.72577 6.36613 2.7413 1.47857C2.04592 2.67167 1.64743 4.05929 1.64743 5.53983C1.64743 8.34262 3.07364 10.8152 5.24129 12.2639C3.91707 12.222 2.67141 11.8585 1.58226 11.2535C1.58134 11.2872 1.58134 11.321 1.58134 11.3551C1.58134 15.2691 4.36603 18.534 8.06167 19.2766C7.38381 19.4613 6.67012 19.5599 5.93339 19.5599C5.41284 19.5599 4.90686 19.5091 4.41348 19.415C5.44159 22.6243 8.42492 24.9599 11.9601 25.0249C9.19531 27.1918 5.7121 28.4833 1.92707 28.4833C1.275 28.4833 0.631988 28.4449 0 28.3703C3.57516 30.6626 7.82148 32 12.3836 32C27.2428 32 35.3686 19.6904 35.3686 9.01477C35.3686 8.66452 35.3607 8.31624 35.3452 7.96953C36.9234 6.83077 38.2929 5.40811 39.3759 3.78798H39.3761Z" fill="white"/>
</svg>
